<svg width="598" height="216" viewBox="0 0 598 216" fill="none" xmlns="http://www.w3.org/2000/svg"><rect x="0.5" y="0.5" width="597" height="215" rx="3.5" fill="white" stroke="#DCE4EC"></rect><path d="M136.714 112.143C136.714 113.052 136.353 113.924 135.71 114.567C135.067 115.21 134.195 115.571 133.286 115.571H102.429C101.519 115.571 100.647 115.21 100.004 114.567C99.3612 113.924 99 113.052 99 112.143V74.4286C99 73.5193 99.3612 72.6472 100.004 72.0042C100.647 71.3612 101.519 71 102.429 71H119.571L136.714 88.1429V112.143Z" stroke="url(#paint0_linear_26_70)" stroke-width="3" stroke-linecap="round" stroke-linejoin="round"></path><path d="M109.286 84.7143H116.143" stroke="url(#paint1_linear_26_70)" stroke-width="3" stroke-linecap="round" stroke-linejoin="round"></path><path d="M109.286 95H126.429" stroke="url(#paint2_linear_26_70)" stroke-width="3" stroke-linecap="round" stroke-linejoin="round"></path><path d="M109.286 105.286H126.429" stroke="url(#paint3_linear_26_70)" stroke-width="3" stroke-linecap="round" stroke-linejoin="round"></path><path d="M185 117.233L227.249 101.016" stroke="#9199A4" stroke-linecap="round" stroke-linejoin="round"></path><path d="M216.005 96.0096L227.249 101.016L222.243 112.259" stroke="#9199A4" stroke-linecap="round" stroke-linejoin="round"></path><path d="M344 167.233L386.249 151.016" stroke="#9199A4" stroke-linecap="round" stroke-linejoin="round"></path><path d="M375.005 146.01L386.249 151.016L381.243 162.259" stroke="#9199A4" stroke-linecap="round" stroke-linejoin="round"></path><path d="M185 147.016L227.249 163.233" stroke="#9199A4" stroke-linecap="round" stroke-linejoin="round"></path><path d="M216.005 168.239L227.249 163.233L222.243 151.99" stroke="#9199A4" stroke-linecap="round" stroke-linejoin="round"></path><path d="M344 101.767L386.249 117.984" stroke="#9199A4" stroke-linecap="round" stroke-linejoin="round"></path><path d="M375.005 122.99L386.249 117.984L381.243 106.741" stroke="#9199A4" stroke-linecap="round" stroke-linejoin="round"></path><path d="M80.2784 129.438H77.7898C77.7443 129.116 77.6515 128.83 77.5114 128.58C77.3712 128.326 77.1913 128.11 76.9716 127.932C76.7519 127.754 76.4981 127.617 76.2102 127.523C75.9261 127.428 75.6174 127.381 75.2841 127.381C74.6818 127.381 74.1572 127.53 73.7102 127.83C73.2633 128.125 72.9167 128.557 72.6705 129.125C72.4242 129.689 72.3011 130.375 72.3011 131.182C72.3011 132.011 72.4242 132.708 72.6705 133.273C72.9205 133.837 73.2689 134.263 73.7159 134.551C74.1629 134.839 74.6799 134.983 75.267 134.983C75.5966 134.983 75.9015 134.939 76.1818 134.852C76.4659 134.765 76.7178 134.638 76.9375 134.472C77.1572 134.301 77.339 134.095 77.483 133.852C77.6307 133.61 77.733 133.333 77.7898 133.023L80.2784 133.034C80.214 133.568 80.053 134.083 79.7955 134.58C79.5417 135.072 79.1989 135.513 78.767 135.903C78.339 136.29 77.8277 136.597 77.233 136.824C76.642 137.047 75.9735 137.159 75.2273 137.159C74.1894 137.159 73.2614 136.924 72.4432 136.455C71.6288 135.985 70.9848 135.305 70.5114 134.415C70.0417 133.525 69.8068 132.447 69.8068 131.182C69.8068 129.913 70.0455 128.833 70.5227 127.943C71 127.053 71.6477 126.375 72.4659 125.909C73.2841 125.439 74.2045 125.205 75.2273 125.205C75.9015 125.205 76.5265 125.299 77.1023 125.489C77.6818 125.678 78.1951 125.955 78.642 126.318C79.089 126.678 79.4527 127.119 79.733 127.642C80.017 128.165 80.1989 128.763 80.2784 129.438ZM81.9972 137V128.273H84.3438V129.795H84.4347C84.5938 129.254 84.8608 128.845 85.2358 128.568C85.6108 128.288 86.0426 128.148 86.5312 128.148C86.6525 128.148 86.7831 128.155 86.9233 128.17C87.0634 128.186 87.1866 128.206 87.2926 128.233V130.381C87.179 130.347 87.0218 130.316 86.821 130.29C86.6203 130.263 86.4366 130.25 86.2699 130.25C85.9138 130.25 85.5956 130.328 85.3153 130.483C85.0388 130.634 84.8191 130.847 84.6562 131.119C84.4972 131.392 84.4176 131.706 84.4176 132.062V137H81.9972ZM92.1151 137.17C91.2173 137.17 90.4446 136.989 89.7969 136.625C89.1529 136.258 88.6567 135.739 88.3082 135.068C87.9598 134.394 87.7855 133.597 87.7855 132.676C87.7855 131.778 87.9598 130.991 88.3082 130.312C88.6567 129.634 89.1473 129.106 89.7798 128.727C90.4162 128.348 91.1624 128.159 92.0185 128.159C92.5942 128.159 93.1302 128.252 93.6264 128.438C94.1264 128.619 94.562 128.894 94.9332 129.261C95.3082 129.629 95.5999 130.091 95.8082 130.648C96.0166 131.201 96.1207 131.848 96.1207 132.591V133.256H88.7514V131.756H93.8423C93.8423 131.407 93.7666 131.098 93.6151 130.83C93.4635 130.561 93.2533 130.35 92.9844 130.199C92.7192 130.044 92.4105 129.966 92.0582 129.966C91.6908 129.966 91.3651 130.051 91.081 130.222C90.8007 130.388 90.581 130.614 90.4219 130.898C90.2628 131.178 90.1813 131.491 90.1776 131.835V133.261C90.1776 133.693 90.2571 134.066 90.4162 134.381C90.5791 134.695 90.8082 134.938 91.1037 135.108C91.3991 135.278 91.7495 135.364 92.1548 135.364C92.4238 135.364 92.67 135.326 92.8935 135.25C93.117 135.174 93.3082 135.061 93.4673 134.909C93.6264 134.758 93.7476 134.572 93.831 134.352L96.0696 134.5C95.956 135.038 95.723 135.508 95.3707 135.909C95.0223 136.307 94.5715 136.617 94.0185 136.841C93.4692 137.061 92.8348 137.17 92.1151 137.17ZM100.189 137.165C99.6321 137.165 99.1359 137.068 98.7003 136.875C98.2647 136.678 97.92 136.388 97.6662 136.006C97.4162 135.619 97.2912 135.138 97.2912 134.562C97.2912 134.078 97.3802 133.67 97.5582 133.341C97.7363 133.011 97.9787 132.746 98.2855 132.545C98.5923 132.345 98.9408 132.193 99.331 132.091C99.7249 131.989 100.138 131.917 100.57 131.875C101.077 131.822 101.486 131.773 101.797 131.727C102.107 131.678 102.333 131.606 102.473 131.511C102.613 131.417 102.683 131.277 102.683 131.091V131.057C102.683 130.697 102.57 130.419 102.342 130.222C102.119 130.025 101.801 129.926 101.388 129.926C100.952 129.926 100.606 130.023 100.348 130.216C100.09 130.405 99.92 130.644 99.8366 130.932L97.598 130.75C97.7116 130.22 97.9351 129.761 98.2685 129.375C98.6018 128.985 99.0317 128.686 99.5582 128.477C100.089 128.265 100.702 128.159 101.399 128.159C101.884 128.159 102.348 128.216 102.791 128.33C103.238 128.443 103.634 128.619 103.979 128.858C104.327 129.097 104.602 129.403 104.803 129.778C105.003 130.15 105.104 130.595 105.104 131.114V137H102.808V135.79H102.74C102.6 136.062 102.412 136.303 102.178 136.511C101.943 136.716 101.661 136.877 101.331 136.994C101.001 137.108 100.621 137.165 100.189 137.165ZM100.882 135.494C101.238 135.494 101.553 135.424 101.825 135.284C102.098 135.14 102.312 134.947 102.467 134.705C102.623 134.462 102.7 134.187 102.7 133.881V132.955C102.625 133.004 102.52 133.049 102.388 133.091C102.259 133.129 102.113 133.165 101.95 133.199C101.787 133.229 101.625 133.258 101.462 133.284C101.299 133.307 101.151 133.328 101.018 133.347C100.734 133.388 100.486 133.455 100.274 133.545C100.062 133.636 99.8973 133.759 99.7798 133.915C99.6624 134.066 99.6037 134.256 99.6037 134.483C99.6037 134.812 99.723 135.064 99.9616 135.239C100.204 135.409 100.511 135.494 100.882 135.494ZM111.624 128.273V130.091H106.368V128.273H111.624ZM107.561 126.182H109.982V134.318C109.982 134.542 110.016 134.716 110.084 134.841C110.152 134.962 110.247 135.047 110.368 135.097C110.493 135.146 110.637 135.17 110.8 135.17C110.913 135.17 111.027 135.161 111.141 135.142C111.254 135.119 111.341 135.102 111.402 135.091L111.783 136.892C111.661 136.93 111.491 136.973 111.271 137.023C111.052 137.076 110.785 137.108 110.47 137.119C109.887 137.142 109.375 137.064 108.936 136.886C108.5 136.708 108.161 136.432 107.919 136.057C107.677 135.682 107.557 135.208 107.561 134.636V126.182ZM117.084 137.17C116.186 137.17 115.413 136.989 114.766 136.625C114.122 136.258 113.625 135.739 113.277 135.068C112.929 134.394 112.754 133.597 112.754 132.676C112.754 131.778 112.929 130.991 113.277 130.312C113.625 129.634 114.116 129.106 114.749 128.727C115.385 128.348 116.131 128.159 116.987 128.159C117.563 128.159 118.099 128.252 118.595 128.438C119.095 128.619 119.531 128.894 119.902 129.261C120.277 129.629 120.569 130.091 120.777 130.648C120.985 131.201 121.089 131.848 121.089 132.591V133.256H113.72V131.756H118.811C118.811 131.407 118.735 131.098 118.584 130.83C118.432 130.561 118.222 130.35 117.953 130.199C117.688 130.044 117.379 129.966 117.027 129.966C116.66 129.966 116.334 130.051 116.05 130.222C115.769 130.388 115.55 130.614 115.391 130.898C115.232 131.178 115.15 131.491 115.146 131.835V133.261C115.146 133.693 115.226 134.066 115.385 134.381C115.548 134.695 115.777 134.938 116.072 135.108C116.368 135.278 116.718 135.364 117.124 135.364C117.393 135.364 117.639 135.326 117.862 135.25C118.086 135.174 118.277 135.061 118.436 134.909C118.595 134.758 118.716 134.572 118.8 134.352L121.038 134.5C120.925 135.038 120.692 135.508 120.339 135.909C119.991 136.307 119.54 136.617 118.987 136.841C118.438 137.061 117.804 137.17 117.084 137.17ZM128.861 137.165C128.304 137.165 127.808 137.068 127.372 136.875C126.937 136.678 126.592 136.388 126.338 136.006C126.088 135.619 125.963 135.138 125.963 134.562C125.963 134.078 126.052 133.67 126.23 133.341C126.408 133.011 126.651 132.746 126.957 132.545C127.264 132.345 127.613 132.193 128.003 132.091C128.397 131.989 128.81 131.917 129.241 131.875C129.749 131.822 130.158 131.773 130.469 131.727C130.779 131.678 131.005 131.606 131.145 131.511C131.285 131.417 131.355 131.277 131.355 131.091V131.057C131.355 130.697 131.241 130.419 131.014 130.222C130.791 130.025 130.473 129.926 130.06 129.926C129.624 129.926 129.277 130.023 129.02 130.216C128.762 130.405 128.592 130.644 128.509 130.932L126.27 130.75C126.384 130.22 126.607 129.761 126.94 129.375C127.274 128.985 127.704 128.686 128.23 128.477C128.76 128.265 129.374 128.159 130.071 128.159C130.556 128.159 131.02 128.216 131.463 128.33C131.91 128.443 132.306 128.619 132.651 128.858C132.999 129.097 133.274 129.403 133.474 129.778C133.675 130.15 133.776 130.595 133.776 131.114V137H131.48V135.79H131.412C131.272 136.062 131.084 136.303 130.849 136.511C130.615 136.716 130.332 136.877 130.003 136.994C129.673 137.108 129.293 137.165 128.861 137.165ZM129.554 135.494C129.91 135.494 130.224 135.424 130.497 135.284C130.77 135.14 130.984 134.947 131.139 134.705C131.295 134.462 131.372 134.187 131.372 133.881V132.955C131.296 133.004 131.192 133.049 131.06 133.091C130.931 133.129 130.785 133.165 130.622 133.199C130.459 133.229 130.296 133.258 130.134 133.284C129.971 133.307 129.823 133.328 129.69 133.347C129.406 133.388 129.158 133.455 128.946 133.545C128.734 133.636 128.569 133.759 128.452 133.915C128.334 134.066 128.276 134.256 128.276 134.483C128.276 134.812 128.395 135.064 128.634 135.239C128.876 135.409 129.183 135.494 129.554 135.494ZM143.999 128.273V130.091H138.743V128.273H143.999ZM139.936 126.182H142.357V134.318C142.357 134.542 142.391 134.716 142.459 134.841C142.527 134.962 142.622 135.047 142.743 135.097C142.868 135.146 143.012 135.17 143.175 135.17C143.288 135.17 143.402 135.161 143.516 135.142C143.629 135.119 143.716 135.102 143.777 135.091L144.158 136.892C144.036 136.93 143.866 136.973 143.646 137.023C143.427 137.076 143.16 137.108 142.845 137.119C142.262 137.142 141.75 137.064 141.311 136.886C140.875 136.708 140.536 136.432 140.294 136.057C140.052 135.682 139.932 135.208 139.936 134.636V126.182ZM149.459 137.17C148.561 137.17 147.788 136.989 147.141 136.625C146.497 136.258 146 135.739 145.652 135.068C145.304 134.394 145.129 133.597 145.129 132.676C145.129 131.778 145.304 130.991 145.652 130.312C146 129.634 146.491 129.106 147.124 128.727C147.76 128.348 148.506 128.159 149.362 128.159C149.938 128.159 150.474 128.252 150.97 128.438C151.47 128.619 151.906 128.894 152.277 129.261C152.652 129.629 152.944 130.091 153.152 130.648C153.36 131.201 153.464 131.848 153.464 132.591V133.256H146.095V131.756H151.186C151.186 131.407 151.11 131.098 150.959 130.83C150.807 130.561 150.597 130.35 150.328 130.199C150.063 130.044 149.754 129.966 149.402 129.966C149.035 129.966 148.709 130.051 148.425 130.222C148.144 130.388 147.925 130.614 147.766 130.898C147.607 131.178 147.525 131.491 147.521 131.835V133.261C147.521 133.693 147.601 134.066 147.76 134.381C147.923 134.695 148.152 134.938 148.447 135.108C148.743 135.278 149.093 135.364 149.499 135.364C149.768 135.364 150.014 135.326 150.237 135.25C150.461 135.174 150.652 135.061 150.811 134.909C150.97 134.758 151.091 134.572 151.175 134.352L153.413 134.5C153.3 135.038 153.067 135.508 152.714 135.909C152.366 136.307 151.915 136.617 151.362 136.841C150.813 137.061 150.179 137.17 149.459 137.17ZM162.305 130.761L160.089 130.898C160.052 130.708 159.97 130.538 159.845 130.386C159.72 130.231 159.555 130.108 159.351 130.017C159.15 129.922 158.91 129.875 158.629 129.875C158.254 129.875 157.938 129.955 157.68 130.114C157.423 130.269 157.294 130.477 157.294 130.739C157.294 130.947 157.377 131.123 157.544 131.267C157.711 131.411 157.997 131.527 158.402 131.614L159.982 131.932C160.83 132.106 161.463 132.386 161.879 132.773C162.296 133.159 162.504 133.667 162.504 134.295C162.504 134.867 162.336 135.369 161.999 135.801C161.665 136.233 161.207 136.57 160.624 136.812C160.044 137.051 159.375 137.17 158.618 137.17C157.463 137.17 156.542 136.93 155.857 136.449C155.175 135.964 154.775 135.305 154.658 134.472L157.038 134.347C157.11 134.699 157.285 134.968 157.561 135.153C157.838 135.335 158.192 135.426 158.624 135.426C159.048 135.426 159.389 135.345 159.646 135.182C159.908 135.015 160.04 134.801 160.044 134.54C160.04 134.32 159.947 134.14 159.766 134C159.584 133.856 159.304 133.746 158.925 133.67L157.413 133.369C156.561 133.199 155.927 132.903 155.51 132.483C155.097 132.062 154.891 131.527 154.891 130.875C154.891 130.314 155.042 129.831 155.345 129.426C155.652 129.021 156.082 128.708 156.635 128.489C157.192 128.269 157.843 128.159 158.589 128.159C159.692 128.159 160.559 128.392 161.192 128.858C161.828 129.324 162.199 129.958 162.305 130.761ZM168.67 128.273V130.091H163.415V128.273H168.67ZM164.608 126.182H167.028V134.318C167.028 134.542 167.063 134.716 167.131 134.841C167.199 134.962 167.294 135.047 167.415 135.097C167.54 135.146 167.684 135.17 167.847 135.17C167.96 135.17 168.074 135.161 168.188 135.142C168.301 135.119 168.388 135.102 168.449 135.091L168.83 136.892C168.708 136.93 168.538 136.973 168.318 137.023C168.098 137.076 167.831 137.108 167.517 137.119C166.934 137.142 166.422 137.064 165.983 136.886C165.547 136.708 165.208 136.432 164.966 136.057C164.723 135.682 164.604 135.208 164.608 134.636V126.182Z" fill="#454F59"></path><path d="M264.931 41H262.295L266.312 29.3636H269.482L273.494 41H270.857L267.942 32.0227H267.852L264.931 41ZM264.766 36.4261H270.994V38.3466H264.766V36.4261ZM281.907 34.7614L279.691 34.8977C279.653 34.7083 279.572 34.5379 279.447 34.3864C279.322 34.2311 279.157 34.108 278.952 34.017C278.752 33.9223 278.511 33.875 278.231 33.875C277.856 33.875 277.54 33.9545 277.282 34.1136C277.024 34.2689 276.896 34.4773 276.896 34.7386C276.896 34.947 276.979 35.1231 277.146 35.267C277.312 35.411 277.598 35.5265 278.004 35.6136L279.583 35.9318C280.432 36.1061 281.064 36.3864 281.481 36.7727C281.897 37.1591 282.106 37.6667 282.106 38.2955C282.106 38.8674 281.937 39.3693 281.6 39.8011C281.267 40.233 280.808 40.5701 280.225 40.8125C279.646 41.0511 278.977 41.1705 278.219 41.1705C277.064 41.1705 276.144 40.9299 275.458 40.4489C274.776 39.964 274.377 39.3049 274.259 38.4716L276.64 38.3466C276.712 38.6989 276.886 38.9678 277.163 39.1534C277.439 39.3352 277.793 39.4261 278.225 39.4261C278.649 39.4261 278.99 39.3447 279.248 39.1818C279.509 39.0152 279.642 38.8011 279.646 38.5398C279.642 38.3201 279.549 38.1402 279.367 38C279.185 37.8561 278.905 37.7462 278.526 37.6705L277.015 37.3693C276.163 37.1989 275.528 36.9034 275.112 36.483C274.699 36.0625 274.492 35.5265 274.492 34.875C274.492 34.3144 274.644 33.8314 274.947 33.4261C275.254 33.0208 275.683 32.7083 276.237 32.4886C276.793 32.2689 277.445 32.1591 278.191 32.1591C279.293 32.1591 280.161 32.392 280.793 32.858C281.43 33.3239 281.801 33.9583 281.907 34.7614ZM290.891 34.7614L288.675 34.8977C288.638 34.7083 288.556 34.5379 288.431 34.3864C288.306 34.2311 288.141 34.108 287.937 34.017C287.736 33.9223 287.496 33.875 287.215 33.875C286.84 33.875 286.524 33.9545 286.266 34.1136C286.009 34.2689 285.88 34.4773 285.88 34.7386C285.88 34.947 285.963 35.1231 286.13 35.267C286.297 35.411 286.583 35.5265 286.988 35.6136L288.567 35.9318C289.416 36.1061 290.049 36.3864 290.465 36.7727C290.882 37.1591 291.09 37.6667 291.09 38.2955C291.09 38.8674 290.922 39.3693 290.585 39.8011C290.251 40.233 289.793 40.5701 289.21 40.8125C288.63 41.0511 287.961 41.1705 287.204 41.1705C286.049 41.1705 285.128 40.9299 284.442 40.4489C283.761 39.964 283.361 39.3049 283.244 38.4716L285.624 38.3466C285.696 38.6989 285.871 38.9678 286.147 39.1534C286.424 39.3352 286.778 39.4261 287.21 39.4261C287.634 39.4261 287.975 39.3447 288.232 39.1818C288.494 39.0152 288.626 38.8011 288.63 38.5398C288.626 38.3201 288.533 38.1402 288.352 38C288.17 37.8561 287.889 37.7462 287.511 37.6705L285.999 37.3693C285.147 37.1989 284.513 36.9034 284.096 36.483C283.683 36.0625 283.477 35.5265 283.477 34.875C283.477 34.3144 283.628 33.8314 283.931 33.4261C284.238 33.0208 284.668 32.7083 285.221 32.4886C285.778 32.2689 286.429 32.1591 287.175 32.1591C288.278 32.1591 289.145 32.392 289.778 32.858C290.414 33.3239 290.785 33.9583 290.891 34.7614ZM292.614 41V32.2727H295.035V41H292.614ZM293.83 31.1477C293.47 31.1477 293.162 31.0284 292.904 30.7898C292.65 30.5473 292.523 30.2576 292.523 29.9205C292.523 29.5871 292.65 29.3011 292.904 29.0625C293.162 28.8201 293.47 28.6989 293.83 28.6989C294.19 28.6989 294.497 28.8201 294.751 29.0625C295.008 29.3011 295.137 29.5871 295.137 29.9205C295.137 30.2576 295.008 30.5473 294.751 30.7898C294.497 31.0284 294.19 31.1477 293.83 31.1477ZM300.906 44.4545C300.121 44.4545 299.449 44.3466 298.888 44.1307C298.332 43.9186 297.888 43.6288 297.559 43.2614C297.229 42.8939 297.015 42.4811 296.917 42.0227L299.156 41.7216C299.224 41.8958 299.332 42.0587 299.479 42.2102C299.627 42.3617 299.822 42.483 300.065 42.5739C300.311 42.6686 300.61 42.7159 300.962 42.7159C301.489 42.7159 301.923 42.5871 302.263 42.3295C302.608 42.0758 302.781 41.6496 302.781 41.0511V39.4545H302.678C302.572 39.697 302.413 39.9261 302.201 40.142C301.989 40.358 301.716 40.5341 301.383 40.6705C301.049 40.8068 300.652 40.875 300.19 40.875C299.534 40.875 298.938 40.7235 298.4 40.4205C297.866 40.1136 297.44 39.6458 297.121 39.017C296.807 38.3845 296.65 37.5852 296.65 36.6193C296.65 35.6307 296.811 34.8049 297.133 34.142C297.455 33.4792 297.883 32.983 298.417 32.6534C298.955 32.3239 299.544 32.1591 300.184 32.1591C300.673 32.1591 301.082 32.2424 301.411 32.4091C301.741 32.572 302.006 32.7765 302.207 33.0227C302.411 33.2652 302.568 33.5038 302.678 33.7386H302.769V32.2727H305.173V41.0852C305.173 41.8277 304.991 42.4489 304.627 42.9489C304.263 43.4489 303.76 43.8239 303.116 44.0739C302.476 44.3277 301.739 44.4545 300.906 44.4545ZM300.957 39.0568C301.347 39.0568 301.676 38.9602 301.945 38.767C302.218 38.5701 302.426 38.2898 302.57 37.9261C302.718 37.5587 302.792 37.1193 302.792 36.608C302.792 36.0966 302.72 35.6534 302.576 35.2784C302.432 34.8996 302.224 34.6061 301.951 34.3977C301.678 34.1894 301.347 34.0852 300.957 34.0852C300.559 34.0852 300.224 34.1932 299.951 34.4091C299.678 34.6212 299.472 34.9167 299.332 35.2955C299.192 35.6742 299.121 36.1117 299.121 36.608C299.121 37.1117 299.192 37.5473 299.332 37.9148C299.476 38.2784 299.682 38.5606 299.951 38.7614C300.224 38.9583 300.559 39.0568 300.957 39.0568ZM309.519 35.9545V41H307.099V32.2727H309.406V33.8125H309.508C309.701 33.3049 310.025 32.9034 310.479 32.608C310.934 32.3087 311.485 32.1591 312.133 32.1591C312.739 32.1591 313.267 32.2917 313.718 32.5568C314.169 32.822 314.519 33.2008 314.769 33.6932C315.019 34.1818 315.144 34.7652 315.144 35.4432V41H312.724V35.875C312.728 35.3409 312.591 34.9242 312.315 34.625C312.038 34.322 311.657 34.1705 311.173 34.1705C310.847 34.1705 310.559 34.2405 310.309 34.3807C310.063 34.5208 309.87 34.7254 309.729 34.9943C309.593 35.2595 309.523 35.5795 309.519 35.9545Z" fill="#454F59"></path><path d="M253.208 102.141V100.818H261.088V102.141H257.911V111H256.38V102.141H253.208ZM264.819 111.154C264.104 111.154 263.479 110.99 262.945 110.662C262.412 110.334 261.997 109.875 261.702 109.285C261.407 108.695 261.26 108.005 261.26 107.217C261.26 106.424 261.407 105.732 261.702 105.138C261.997 104.545 262.412 104.085 262.945 103.756C263.479 103.428 264.104 103.264 264.819 103.264C265.535 103.264 266.16 103.428 266.694 103.756C267.227 104.085 267.642 104.545 267.937 105.138C268.232 105.732 268.379 106.424 268.379 107.217C268.379 108.005 268.232 108.695 267.937 109.285C267.642 109.875 267.227 110.334 266.694 110.662C266.16 110.99 265.535 111.154 264.819 111.154ZM264.824 109.906C265.288 109.906 265.673 109.784 265.978 109.538C266.283 109.293 266.508 108.967 266.654 108.559C266.803 108.151 266.878 107.702 266.878 107.212C266.878 106.724 266.803 106.277 266.654 105.869C266.508 105.458 266.283 105.129 265.978 104.88C265.673 104.631 265.288 104.507 264.824 104.507C264.357 104.507 263.969 104.631 263.661 104.88C263.356 105.129 263.129 105.458 262.98 105.869C262.834 106.277 262.761 106.724 262.761 107.212C262.761 107.702 262.834 108.151 262.98 108.559C263.129 108.967 263.356 109.293 263.661 109.538C263.969 109.784 264.357 109.906 264.824 109.906ZM275.966 111.169C275.482 111.169 275.044 111.08 274.653 110.901C274.262 110.718 273.952 110.455 273.724 110.11C273.498 109.765 273.385 109.343 273.385 108.842C273.385 108.411 273.468 108.057 273.634 107.778C273.8 107.5 274.023 107.28 274.305 107.117C274.587 106.955 274.902 106.832 275.25 106.749C275.598 106.666 275.952 106.603 276.314 106.56C276.771 106.507 277.142 106.464 277.427 106.431C277.712 106.395 277.92 106.337 278.049 106.257C278.178 106.178 278.243 106.048 278.243 105.869V105.835C278.243 105.4 278.12 105.064 277.875 104.825C277.633 104.587 277.272 104.467 276.791 104.467C276.291 104.467 275.896 104.578 275.608 104.8C275.323 105.019 275.126 105.263 275.016 105.531L273.619 105.213C273.785 104.749 274.027 104.375 274.345 104.089C274.666 103.801 275.036 103.592 275.454 103.463C275.871 103.33 276.31 103.264 276.771 103.264C277.076 103.264 277.399 103.301 277.741 103.374C278.085 103.443 278.407 103.572 278.705 103.761C279.007 103.95 279.254 104.22 279.446 104.572C279.638 104.92 279.734 105.372 279.734 105.929V111H278.282V109.956H278.223C278.127 110.148 277.983 110.337 277.79 110.523C277.598 110.708 277.351 110.862 277.05 110.985C276.748 111.108 276.387 111.169 275.966 111.169ZM276.289 109.976C276.7 109.976 277.051 109.895 277.343 109.732C277.638 109.57 277.862 109.358 278.014 109.096C278.17 108.831 278.248 108.547 278.248 108.246V107.261C278.195 107.314 278.092 107.364 277.939 107.411C277.79 107.454 277.62 107.492 277.427 107.525C277.235 107.555 277.048 107.583 276.866 107.609C276.683 107.633 276.531 107.652 276.408 107.669C276.12 107.705 275.856 107.767 275.618 107.853C275.382 107.939 275.193 108.063 275.051 108.226C274.912 108.385 274.842 108.597 274.842 108.862C274.842 109.23 274.978 109.509 275.25 109.697C275.522 109.883 275.868 109.976 276.289 109.976ZM292.429 104.035C292.333 103.733 292.204 103.463 292.041 103.224C291.882 102.982 291.692 102.777 291.47 102.608C291.248 102.436 290.994 102.305 290.709 102.215C290.427 102.126 290.117 102.081 289.779 102.081C289.206 102.081 288.689 102.228 288.228 102.523C287.767 102.818 287.403 103.251 287.134 103.821C286.869 104.388 286.737 105.082 286.737 105.904C286.737 106.729 286.871 107.427 287.139 107.997C287.408 108.567 287.776 109 288.243 109.295C288.71 109.59 289.242 109.737 289.839 109.737C290.392 109.737 290.875 109.625 291.286 109.399C291.7 109.174 292.02 108.856 292.245 108.445C292.474 108.03 292.588 107.543 292.588 106.983L292.986 107.058H290.073V105.79H294.075V106.948C294.075 107.803 293.892 108.546 293.528 109.175C293.167 109.802 292.666 110.286 292.026 110.627C291.39 110.969 290.661 111.139 289.839 111.139C288.918 111.139 288.109 110.927 287.413 110.503C286.72 110.079 286.18 109.477 285.792 108.698C285.404 107.916 285.21 106.988 285.21 105.914C285.21 105.102 285.323 104.373 285.548 103.727C285.774 103.08 286.09 102.532 286.498 102.081C286.909 101.627 287.391 101.281 287.945 101.042C288.502 100.8 289.11 100.679 289.769 100.679C290.32 100.679 290.832 100.76 291.306 100.923C291.783 101.085 292.207 101.315 292.578 101.614C292.953 101.912 293.263 102.267 293.508 102.678C293.753 103.085 293.919 103.538 294.005 104.035H292.429ZM295.906 111V103.364H297.342V104.577H297.422C297.561 104.166 297.806 103.843 298.158 103.607C298.512 103.369 298.913 103.249 299.361 103.249C299.454 103.249 299.563 103.253 299.689 103.259C299.818 103.266 299.919 103.274 299.992 103.284V104.706C299.933 104.689 299.826 104.671 299.674 104.651C299.522 104.628 299.369 104.616 299.217 104.616C298.865 104.616 298.552 104.691 298.277 104.84C298.005 104.986 297.79 105.19 297.631 105.452C297.472 105.71 297.392 106.005 297.392 106.337V111H295.906ZM304.222 111.154C303.506 111.154 302.881 110.99 302.347 110.662C301.814 110.334 301.4 109.875 301.105 109.285C300.81 108.695 300.662 108.005 300.662 107.217C300.662 106.424 300.81 105.732 301.105 105.138C301.4 104.545 301.814 104.085 302.347 103.756C302.881 103.428 303.506 103.264 304.222 103.264C304.938 103.264 305.562 103.428 306.096 103.756C306.63 104.085 307.044 104.545 307.339 105.138C307.634 105.732 307.781 106.424 307.781 107.217C307.781 108.005 307.634 108.695 307.339 109.285C307.044 109.875 306.63 110.334 306.096 110.662C305.562 110.99 304.938 111.154 304.222 111.154ZM304.227 109.906C304.691 109.906 305.075 109.784 305.38 109.538C305.685 109.293 305.91 108.967 306.056 108.559C306.205 108.151 306.28 107.702 306.28 107.212C306.28 106.724 306.205 106.277 306.056 105.869C305.91 105.458 305.685 105.129 305.38 104.88C305.075 104.631 304.691 104.507 304.227 104.507C303.759 104.507 303.372 104.631 303.063 104.88C302.758 105.129 302.531 105.458 302.382 105.869C302.236 106.277 302.164 106.724 302.164 107.212C302.164 107.702 302.236 108.151 302.382 108.559C302.531 108.967 302.758 109.293 303.063 109.538C303.372 109.784 303.759 109.906 304.227 109.906ZM314.278 107.833V103.364H315.77V111H314.308V109.678H314.228C314.053 110.085 313.771 110.425 313.383 110.697C312.999 110.965 312.52 111.099 311.946 111.099C311.456 111.099 311.022 110.992 310.644 110.776C310.269 110.558 309.974 110.234 309.759 109.807C309.547 109.379 309.441 108.851 309.441 108.221V103.364H310.927V108.042C310.927 108.562 311.071 108.977 311.36 109.285C311.648 109.593 312.023 109.747 312.483 109.747C312.762 109.747 313.038 109.678 313.314 109.538C313.592 109.399 313.822 109.189 314.005 108.907C314.19 108.625 314.281 108.267 314.278 107.833ZM317.767 113.864V103.364H319.219V104.602H319.343C319.429 104.442 319.553 104.259 319.716 104.05C319.878 103.841 320.104 103.659 320.392 103.503C320.68 103.344 321.061 103.264 321.535 103.264C322.152 103.264 322.702 103.42 323.186 103.732C323.67 104.043 324.049 104.492 324.324 105.079C324.603 105.665 324.742 106.371 324.742 107.197C324.742 108.022 324.604 108.73 324.329 109.32C324.054 109.906 323.676 110.359 323.196 110.677C322.715 110.992 322.167 111.149 321.55 111.149C321.086 111.149 320.707 111.071 320.412 110.915C320.12 110.76 319.891 110.577 319.726 110.369C319.56 110.16 319.432 109.974 319.343 109.812H319.253V113.864H317.767ZM319.224 107.182C319.224 107.719 319.301 108.189 319.457 108.594C319.613 108.998 319.838 109.315 320.133 109.543C320.428 109.769 320.79 109.881 321.217 109.881C321.661 109.881 322.032 109.764 322.331 109.528C322.629 109.29 322.854 108.967 323.007 108.559C323.163 108.151 323.241 107.692 323.241 107.182C323.241 106.678 323.164 106.226 323.012 105.825C322.863 105.424 322.637 105.107 322.336 104.875C322.037 104.643 321.665 104.527 321.217 104.527C320.786 104.527 320.422 104.638 320.123 104.86C319.828 105.082 319.605 105.392 319.452 105.79C319.3 106.187 319.224 106.652 319.224 107.182Z" fill="#454F59"></path><path d="M260.887 186H259.256L262.92 175.818H264.695L268.359 186H266.729L263.85 177.668H263.77L260.887 186ZM261.16 182.013H266.45V183.305H261.16V182.013ZM275.378 180.228L274.031 180.467C273.974 180.294 273.885 180.13 273.762 179.974C273.643 179.819 273.48 179.691 273.275 179.592C273.069 179.492 272.813 179.442 272.504 179.442C272.083 179.442 271.732 179.537 271.45 179.726C271.169 179.911 271.028 180.152 271.028 180.447C271.028 180.702 271.122 180.907 271.311 181.063C271.5 181.219 271.805 181.347 272.226 181.446L273.439 181.724C274.142 181.887 274.665 182.137 275.01 182.475C275.355 182.813 275.527 183.252 275.527 183.793C275.527 184.25 275.394 184.658 275.129 185.016C274.867 185.37 274.501 185.649 274.031 185.851C273.563 186.053 273.021 186.154 272.405 186.154C271.55 186.154 270.852 185.972 270.312 185.607C269.772 185.239 269.44 184.717 269.317 184.041L270.754 183.822C270.844 184.197 271.028 184.48 271.306 184.673C271.585 184.862 271.947 184.956 272.395 184.956C272.882 184.956 273.272 184.855 273.563 184.653C273.855 184.447 274.001 184.197 274.001 183.902C274.001 183.663 273.911 183.463 273.732 183.3C273.557 183.138 273.286 183.015 272.922 182.933L271.629 182.649C270.917 182.487 270.39 182.228 270.048 181.874C269.71 181.519 269.541 181.07 269.541 180.526C269.541 180.076 269.667 179.681 269.919 179.343C270.171 179.005 270.519 178.741 270.963 178.553C271.407 178.36 271.916 178.264 272.489 178.264C273.315 178.264 273.964 178.443 274.438 178.801C274.912 179.156 275.225 179.631 275.378 180.228ZM283.089 186.169C282.605 186.169 282.167 186.08 281.776 185.901C281.385 185.718 281.075 185.455 280.847 185.11C280.621 184.765 280.509 184.343 280.509 183.842C280.509 183.411 280.591 183.057 280.757 182.778C280.923 182.5 281.147 182.28 281.428 182.117C281.71 181.955 282.025 181.832 282.373 181.749C282.721 181.666 283.076 181.603 283.437 181.56C283.894 181.507 284.265 181.464 284.55 181.431C284.835 181.395 285.043 181.337 285.172 181.257C285.301 181.178 285.366 181.048 285.366 180.869V180.835C285.366 180.4 285.243 180.064 284.998 179.825C284.756 179.587 284.395 179.467 283.914 179.467C283.414 179.467 283.019 179.578 282.731 179.8C282.446 180.019 282.249 180.263 282.139 180.531L280.742 180.213C280.908 179.749 281.15 179.375 281.468 179.089C281.79 178.801 282.159 178.592 282.577 178.463C282.994 178.33 283.433 178.264 283.894 178.264C284.199 178.264 284.522 178.301 284.864 178.374C285.208 178.443 285.53 178.572 285.828 178.761C286.13 178.95 286.377 179.22 286.569 179.572C286.761 179.92 286.857 180.372 286.857 180.929V186H285.406V184.956H285.346C285.25 185.148 285.106 185.337 284.913 185.523C284.721 185.708 284.474 185.862 284.173 185.985C283.871 186.108 283.51 186.169 283.089 186.169ZM283.412 184.976C283.823 184.976 284.174 184.895 284.466 184.732C284.761 184.57 284.985 184.358 285.137 184.096C285.293 183.831 285.371 183.547 285.371 183.246V182.261C285.318 182.314 285.215 182.364 285.062 182.411C284.913 182.454 284.743 182.492 284.55 182.525C284.358 182.555 284.171 182.583 283.989 182.609C283.806 182.633 283.654 182.652 283.531 182.669C283.243 182.705 282.979 182.767 282.741 182.853C282.505 182.939 282.317 183.063 282.174 183.226C282.035 183.385 281.965 183.597 281.965 183.862C281.965 184.23 282.101 184.509 282.373 184.697C282.645 184.883 282.991 184.976 283.412 184.976ZM292.662 186V175.818H294.198V184.678H298.811V186H292.662ZM300.445 186V178.364H301.931V186H300.445ZM301.195 177.185C300.937 177.185 300.715 177.099 300.529 176.927C300.347 176.751 300.256 176.542 300.256 176.3C300.256 176.055 300.347 175.846 300.529 175.674C300.715 175.498 300.937 175.411 301.195 175.411C301.454 175.411 301.674 175.498 301.857 175.674C302.042 175.846 302.135 176.055 302.135 176.3C302.135 176.542 302.042 176.751 301.857 176.927C301.674 177.099 301.454 177.185 301.195 177.185ZM305.417 181.466V186H303.931V178.364H305.358V179.607H305.452C305.628 179.202 305.903 178.877 306.278 178.632C306.655 178.387 307.131 178.264 307.704 178.264C308.225 178.264 308.68 178.374 309.072 178.592C309.463 178.808 309.766 179.129 309.981 179.557C310.197 179.984 310.305 180.513 310.305 181.143V186H308.818V181.322C308.818 180.768 308.674 180.336 308.385 180.024C308.097 179.709 307.701 179.552 307.197 179.552C306.853 179.552 306.546 179.626 306.278 179.776C306.012 179.925 305.802 180.143 305.646 180.432C305.494 180.717 305.417 181.062 305.417 181.466ZM313.665 183.41L313.655 181.595H313.914L316.956 178.364H318.736L315.266 182.043H315.032L313.665 183.41ZM312.298 186V175.818H313.785V186H312.298ZM317.121 186L314.386 182.371L315.41 181.332L318.945 186H317.121Z" fill="#454F59"></path><path d="M425.278 129.438H422.79C422.744 129.116 422.652 128.83 422.511 128.58C422.371 128.326 422.191 128.11 421.972 127.932C421.752 127.754 421.498 127.617 421.21 127.523C420.926 127.428 420.617 127.381 420.284 127.381C419.682 127.381 419.157 127.53 418.71 127.83C418.263 128.125 417.917 128.557 417.67 129.125C417.424 129.689 417.301 130.375 417.301 131.182C417.301 132.011 417.424 132.708 417.67 133.273C417.92 133.837 418.269 134.263 418.716 134.551C419.163 134.839 419.68 134.983 420.267 134.983C420.597 134.983 420.902 134.939 421.182 134.852C421.466 134.765 421.718 134.638 421.938 134.472C422.157 134.301 422.339 134.095 422.483 133.852C422.631 133.61 422.733 133.333 422.79 133.023L425.278 133.034C425.214 133.568 425.053 134.083 424.795 134.58C424.542 135.072 424.199 135.513 423.767 135.903C423.339 136.29 422.828 136.597 422.233 136.824C421.642 137.047 420.973 137.159 420.227 137.159C419.189 137.159 418.261 136.924 417.443 136.455C416.629 135.985 415.985 135.305 415.511 134.415C415.042 133.525 414.807 132.447 414.807 131.182C414.807 129.913 415.045 128.833 415.523 127.943C416 127.053 416.648 126.375 417.466 125.909C418.284 125.439 419.205 125.205 420.227 125.205C420.902 125.205 421.527 125.299 422.102 125.489C422.682 125.678 423.195 125.955 423.642 126.318C424.089 126.678 424.453 127.119 424.733 127.642C425.017 128.165 425.199 128.763 425.278 129.438ZM430.94 137.17C430.058 137.17 429.295 136.983 428.651 136.608C428.01 136.229 427.516 135.703 427.168 135.028C426.819 134.35 426.645 133.564 426.645 132.67C426.645 131.769 426.819 130.981 427.168 130.307C427.516 129.629 428.01 129.102 428.651 128.727C429.295 128.348 430.058 128.159 430.94 128.159C431.823 128.159 432.584 128.348 433.224 128.727C433.868 129.102 434.365 129.629 434.713 130.307C435.062 130.981 435.236 131.769 435.236 132.67C435.236 133.564 435.062 134.35 434.713 135.028C434.365 135.703 433.868 136.229 433.224 136.608C432.584 136.983 431.823 137.17 430.94 137.17ZM430.952 135.295C431.353 135.295 431.688 135.182 431.957 134.955C432.226 134.723 432.429 134.409 432.565 134.011C432.705 133.614 432.776 133.161 432.776 132.653C432.776 132.146 432.705 131.693 432.565 131.295C432.429 130.898 432.226 130.583 431.957 130.352C431.688 130.121 431.353 130.006 430.952 130.006C430.546 130.006 430.205 130.121 429.929 130.352C429.656 130.583 429.45 130.898 429.31 131.295C429.173 131.693 429.105 132.146 429.105 132.653C429.105 133.161 429.173 133.614 429.31 134.011C429.45 134.409 429.656 134.723 429.929 134.955C430.205 135.182 430.546 135.295 430.952 135.295ZM439.23 125.364V137H436.81V125.364H439.23ZM443.589 125.364V137H441.169V125.364H443.589ZM449.506 137.17C448.608 137.17 447.835 136.989 447.188 136.625C446.544 136.258 446.047 135.739 445.699 135.068C445.35 134.394 445.176 133.597 445.176 132.676C445.176 131.778 445.35 130.991 445.699 130.312C446.047 129.634 446.538 129.106 447.17 128.727C447.807 128.348 448.553 128.159 449.409 128.159C449.985 128.159 450.521 128.252 451.017 128.438C451.517 128.619 451.953 128.894 452.324 129.261C452.699 129.629 452.991 130.091 453.199 130.648C453.407 131.201 453.511 131.848 453.511 132.591V133.256H446.142V131.756H451.233C451.233 131.407 451.157 131.098 451.006 130.83C450.854 130.561 450.644 130.35 450.375 130.199C450.11 130.044 449.801 129.966 449.449 129.966C449.081 129.966 448.756 130.051 448.472 130.222C448.191 130.388 447.972 130.614 447.812 130.898C447.653 131.178 447.572 131.491 447.568 131.835V133.261C447.568 133.693 447.648 134.066 447.807 134.381C447.97 134.695 448.199 134.938 448.494 135.108C448.79 135.278 449.14 135.364 449.545 135.364C449.814 135.364 450.061 135.326 450.284 135.25C450.508 135.174 450.699 135.061 450.858 134.909C451.017 134.758 451.138 134.572 451.222 134.352L453.46 134.5C453.347 135.038 453.114 135.508 452.761 135.909C452.413 136.307 451.962 136.617 451.409 136.841C450.86 137.061 450.225 137.17 449.506 137.17ZM459.034 137.17C458.14 137.17 457.371 136.981 456.727 136.602C456.087 136.22 455.595 135.689 455.25 135.011C454.909 134.333 454.739 133.553 454.739 132.67C454.739 131.777 454.911 130.992 455.256 130.318C455.604 129.64 456.098 129.112 456.739 128.733C457.379 128.35 458.14 128.159 459.023 128.159C459.784 128.159 460.451 128.297 461.023 128.574C461.595 128.85 462.047 129.239 462.381 129.739C462.714 130.239 462.898 130.826 462.932 131.5H460.648C460.583 131.064 460.413 130.714 460.136 130.449C459.864 130.18 459.506 130.045 459.062 130.045C458.688 130.045 458.36 130.148 458.08 130.352C457.803 130.553 457.587 130.847 457.432 131.233C457.277 131.619 457.199 132.087 457.199 132.636C457.199 133.193 457.275 133.667 457.426 134.057C457.581 134.447 457.799 134.744 458.08 134.949C458.36 135.153 458.688 135.256 459.062 135.256C459.339 135.256 459.587 135.199 459.807 135.085C460.03 134.972 460.214 134.807 460.358 134.591C460.506 134.371 460.602 134.108 460.648 133.801H462.932C462.894 134.468 462.712 135.055 462.386 135.562C462.064 136.066 461.619 136.46 461.051 136.744C460.483 137.028 459.811 137.17 459.034 137.17ZM469.124 128.273V130.091H463.868V128.273H469.124ZM465.061 126.182H467.482V134.318C467.482 134.542 467.516 134.716 467.584 134.841C467.652 134.962 467.747 135.047 467.868 135.097C467.993 135.146 468.137 135.17 468.3 135.17C468.413 135.17 468.527 135.161 468.641 135.142C468.754 135.119 468.841 135.102 468.902 135.091L469.283 136.892C469.161 136.93 468.991 136.973 468.771 137.023C468.552 137.076 468.285 137.108 467.97 137.119C467.387 137.142 466.875 137.064 466.436 136.886C466 136.708 465.661 136.432 465.419 136.057C465.177 135.682 465.057 135.208 465.061 134.636V126.182ZM474.403 137V128.273H476.75V129.795H476.841C477 129.254 477.267 128.845 477.642 128.568C478.017 128.288 478.449 128.148 478.938 128.148C479.059 128.148 479.189 128.155 479.33 128.17C479.47 128.186 479.593 128.206 479.699 128.233V130.381C479.585 130.347 479.428 130.316 479.227 130.29C479.027 130.263 478.843 130.25 478.676 130.25C478.32 130.25 478.002 130.328 477.722 130.483C477.445 130.634 477.225 130.847 477.062 131.119C476.903 131.392 476.824 131.706 476.824 132.062V137H474.403ZM484.521 137.17C483.624 137.17 482.851 136.989 482.203 136.625C481.559 136.258 481.063 135.739 480.714 135.068C480.366 134.394 480.192 133.597 480.192 132.676C480.192 131.778 480.366 130.991 480.714 130.312C481.063 129.634 481.554 129.106 482.186 128.727C482.822 128.348 483.569 128.159 484.425 128.159C485 128.159 485.536 128.252 486.033 128.438C486.533 128.619 486.968 128.894 487.339 129.261C487.714 129.629 488.006 130.091 488.214 130.648C488.423 131.201 488.527 131.848 488.527 132.591V133.256H481.158V131.756H486.249C486.249 131.407 486.173 131.098 486.021 130.83C485.87 130.561 485.66 130.35 485.391 130.199C485.125 130.044 484.817 129.966 484.464 129.966C484.097 129.966 483.771 130.051 483.487 130.222C483.207 130.388 482.987 130.614 482.828 130.898C482.669 131.178 482.588 131.491 482.584 131.835V133.261C482.584 133.693 482.663 134.066 482.822 134.381C482.985 134.695 483.214 134.938 483.51 135.108C483.805 135.278 484.156 135.364 484.561 135.364C484.83 135.364 485.076 135.326 485.3 135.25C485.523 135.174 485.714 135.061 485.874 134.909C486.033 134.758 486.154 134.572 486.237 134.352L488.476 134.5C488.362 135.038 488.129 135.508 487.777 135.909C487.429 136.307 486.978 136.617 486.425 136.841C485.875 137.061 485.241 137.17 484.521 137.17ZM497.368 130.761L495.152 130.898C495.114 130.708 495.033 130.538 494.908 130.386C494.783 130.231 494.618 130.108 494.413 130.017C494.213 129.922 493.972 129.875 493.692 129.875C493.317 129.875 493 129.955 492.743 130.114C492.485 130.269 492.357 130.477 492.357 130.739C492.357 130.947 492.44 131.123 492.607 131.267C492.773 131.411 493.059 131.527 493.464 131.614L495.044 131.932C495.893 132.106 496.525 132.386 496.942 132.773C497.358 133.159 497.567 133.667 497.567 134.295C497.567 134.867 497.398 135.369 497.061 135.801C496.728 136.233 496.269 136.57 495.686 136.812C495.107 137.051 494.438 137.17 493.68 137.17C492.525 137.17 491.605 136.93 490.919 136.449C490.237 135.964 489.838 135.305 489.72 134.472L492.101 134.347C492.173 134.699 492.347 134.968 492.624 135.153C492.9 135.335 493.254 135.426 493.686 135.426C494.11 135.426 494.451 135.345 494.709 135.182C494.97 135.015 495.103 134.801 495.107 134.54C495.103 134.32 495.01 134.14 494.828 134C494.646 133.856 494.366 133.746 493.987 133.67L492.476 133.369C491.624 133.199 490.989 132.903 490.572 132.483C490.16 132.062 489.953 131.527 489.953 130.875C489.953 130.314 490.105 129.831 490.408 129.426C490.714 129.021 491.144 128.708 491.697 128.489C492.254 128.269 492.906 128.159 493.652 128.159C494.754 128.159 495.622 128.392 496.254 128.858C496.891 129.324 497.262 129.958 497.368 130.761ZM504.688 133.284V128.273H507.108V137H504.784V135.415H504.693C504.496 135.926 504.169 136.337 503.71 136.648C503.256 136.958 502.701 137.114 502.045 137.114C501.462 137.114 500.949 136.981 500.506 136.716C500.063 136.451 499.716 136.074 499.466 135.585C499.22 135.097 499.095 134.511 499.091 133.83V128.273H501.511V133.398C501.515 133.913 501.653 134.32 501.926 134.619C502.199 134.919 502.564 135.068 503.023 135.068C503.314 135.068 503.587 135.002 503.841 134.869C504.095 134.733 504.299 134.532 504.455 134.267C504.614 134.002 504.691 133.674 504.688 133.284ZM511.464 125.364V137H509.044V125.364H511.464ZM518.045 128.273V130.091H512.79V128.273H518.045ZM513.983 126.182H516.403V134.318C516.403 134.542 516.438 134.716 516.506 134.841C516.574 134.962 516.669 135.047 516.79 135.097C516.915 135.146 517.059 135.17 517.222 135.17C517.335 135.17 517.449 135.161 517.562 135.142C517.676 135.119 517.763 135.102 517.824 135.091L518.205 136.892C518.083 136.93 517.913 136.973 517.693 137.023C517.473 137.076 517.206 137.108 516.892 137.119C516.309 137.142 515.797 137.064 515.358 136.886C514.922 136.708 514.583 136.432 514.341 136.057C514.098 135.682 513.979 135.208 513.983 134.636V126.182ZM526.774 130.761L524.558 130.898C524.52 130.708 524.439 130.538 524.314 130.386C524.189 130.231 524.024 130.108 523.82 130.017C523.619 129.922 523.378 129.875 523.098 129.875C522.723 129.875 522.407 129.955 522.149 130.114C521.892 130.269 521.763 130.477 521.763 130.739C521.763 130.947 521.846 131.123 522.013 131.267C522.179 131.411 522.465 131.527 522.871 131.614L524.45 131.932C525.299 132.106 525.931 132.386 526.348 132.773C526.765 133.159 526.973 133.667 526.973 134.295C526.973 134.867 526.804 135.369 526.467 135.801C526.134 136.233 525.676 136.57 525.092 136.812C524.513 137.051 523.844 137.17 523.087 137.17C521.931 137.17 521.011 136.93 520.325 136.449C519.643 135.964 519.244 135.305 519.126 134.472L521.507 134.347C521.579 134.699 521.753 134.968 522.03 135.153C522.306 135.335 522.661 135.426 523.092 135.426C523.517 135.426 523.857 135.345 524.115 135.182C524.376 135.015 524.509 134.801 524.513 134.54C524.509 134.32 524.416 134.14 524.234 134C524.053 133.856 523.772 133.746 523.393 133.67L521.882 133.369C521.03 133.199 520.395 132.903 519.979 132.483C519.566 132.062 519.359 131.527 519.359 130.875C519.359 130.314 519.511 129.831 519.814 129.426C520.121 129.021 520.551 128.708 521.104 128.489C521.661 128.269 522.312 128.159 523.058 128.159C524.161 128.159 525.028 128.392 525.661 128.858C526.297 129.324 526.668 129.958 526.774 130.761Z" fill="#454F59"></path><path d="M280.533 158.461L295.467 143.528" stroke="url(#paint4_angular_26_70)" stroke-width="2" stroke-linecap="round" stroke-linejoin="round"></path><path d="M281.934 151.026C281.04 150.974 280.144 151.112 279.307 151.431C278.469 151.749 277.709 152.241 277.075 152.874L273.875 156.074C272.674 157.275 272 158.903 272 160.6C272 161.44 272.166 162.273 272.487 163.049C272.809 163.826 273.28 164.531 273.875 165.125C274.469 165.72 275.174 166.191 275.951 166.513C276.727 166.834 277.56 167 278.4 167C280.097 167 281.725 166.326 282.926 165.125L286.126 161.925C286.759 161.291 287.251 160.531 287.569 159.693C287.888 158.856 288.026 157.96 287.974 157.066" stroke="url(#paint5_angular_26_70)" stroke-width="2" stroke-linecap="round" stroke-linejoin="round"></path><path d="M294.066 150.962C294.96 151.013 295.856 150.875 296.693 150.556C297.531 150.238 298.291 149.746 298.925 149.113L302.125 145.913C303.326 144.712 304 143.085 304 141.387C304 139.69 303.326 138.062 302.125 136.862C300.925 135.661 299.297 134.987 297.6 134.987C295.903 134.987 294.275 135.661 293.074 136.862L289.874 140.062C289.243 140.697 288.752 141.458 288.435 142.295C288.118 143.132 287.981 144.027 288.033 144.921" stroke="url(#paint6_angular_26_70)" stroke-width="2" stroke-linecap="round" stroke-linejoin="round"></path><path d="M449 116H494" stroke="url(#paint7_linear_26_70)" stroke-width="2" stroke-linecap="round" stroke-linejoin="round"></path><path d="M459.5 95H453.5C453.102 95 452.721 95.158 452.439 95.4393C452.158 95.7206 452 96.1022 452 96.5V116H461V96.5C461 96.1022 460.842 95.7206 460.561 95.4393C460.279 95.158 459.898 95 459.5 95Z" stroke="url(#paint8_linear_26_70)" stroke-width="2" stroke-linecap="round" stroke-linejoin="round"></path><path d="M474.5 77H468.5C468.102 77 467.721 77.158 467.439 77.4393C467.158 77.7206 467 78.1022 467 78.5V116H476V78.5C476 78.1022 475.842 77.7206 475.561 77.4393C475.279 77.158 474.898 77 474.5 77Z" stroke="url(#paint9_linear_26_70)" stroke-width="2" stroke-linecap="round" stroke-linejoin="round"></path><path d="M489.5 86H483.5C483.102 86 482.721 86.158 482.439 86.4393C482.158 86.7206 482 87.1022 482 87.5V116H491V87.5C491 87.1022 490.842 86.7206 490.561 86.4393C490.279 86.158 489.898 86 489.5 86Z" stroke="url(#paint10_linear_26_70)" stroke-width="2" stroke-linecap="round" stroke-linejoin="round"></path><path d="M271.25 77.5C274.149 77.5 276.5 75.1495 276.5 72.25C276.5 69.3505 274.149 67 271.25 67C268.351 67 266 69.3505 266 72.25C266 75.1495 268.351 77.5 271.25 77.5Z" stroke="url(#paint11_linear_26_70)" stroke-width="2" stroke-linecap="round" stroke-linejoin="round"></path><path d="M279.528 84.466C278.998 83.2267 278.196 82.1225 277.181 81.2347C276.167 80.347 274.966 79.6984 273.668 79.3369C272.369 78.9754 271.006 78.9102 269.679 79.1461C268.352 79.382 267.094 79.9131 266 80.7" stroke="url(#paint12_linear_26_70)" stroke-width="2" stroke-linecap="round" stroke-linejoin="round"></path><path d="M305.75 77.5C308.649 77.5 311 75.1495 311 72.25C311 69.3505 308.649 67 305.75 67C302.851 67 300.5 69.3505 300.5 72.25C300.5 75.1495 302.851 77.5 305.75 77.5Z" stroke="url(#paint13_linear_26_70)" stroke-width="2" stroke-linecap="round" stroke-linejoin="round"></path><path d="M297.472 84.466C298.002 83.2267 298.804 82.1225 299.819 81.2347C300.833 80.347 302.034 79.6984 303.332 79.3369C304.631 78.9754 305.994 78.9102 307.321 79.1461C308.648 79.382 309.906 79.9131 311 80.7" stroke="url(#paint14_linear_26_70)" stroke-width="2" stroke-linecap="round" stroke-linejoin="round"></path><path d="M288.5 77.5C292.228 77.5 295.25 74.4779 295.25 70.75C295.25 67.0221 292.228 64 288.5 64C284.772 64 281.75 67.0221 281.75 70.75C281.75 74.4779 284.772 77.5 288.5 77.5Z" stroke="url(#paint15_linear_26_70)" stroke-width="2" stroke-linecap="round" stroke-linejoin="round"></path><path d="M300.5 91C300.109 88.0944 298.678 85.4293 296.471 83.4993C294.264 81.5693 291.432 80.5056 288.5 80.5056C285.568 80.5056 282.736 81.5693 280.529 83.4993C278.322 85.4293 276.891 88.0944 276.5 91" stroke="url(#paint16_linear_26_70)" stroke-width="2" stroke-linecap="round" stroke-linejoin="round"></path><defs><linearGradient id="paint0_linear_26_70" x1="117.857" y1="71" x2="117.857" y2="115.571" gradientUnits="userSpaceOnUse"><stop stop-color="#FF9255"></stop><stop offset="1" stop-color="#FB3311"></stop></linearGradient><linearGradient id="paint1_linear_26_70" x1="112.714" y1="84.7143" x2="112.714" y2="85.7143" gradientUnits="userSpaceOnUse"><stop stop-color="#FF9255"></stop><stop offset="1" stop-color="#FB3311"></stop></linearGradient><linearGradient id="paint2_linear_26_70" x1="117.857" y1="95" x2="117.857" y2="96" gradientUnits="userSpaceOnUse"><stop stop-color="#FF9255"></stop><stop offset="1" stop-color="#FB3311"></stop></linearGradient><linearGradient id="paint3_linear_26_70" x1="117.857" y1="105.286" x2="117.857" y2="106.286" gradientUnits="userSpaceOnUse"><stop stop-color="#FF9255"></stop><stop offset="1" stop-color="#FB3311"></stop></linearGradient><radialGradient id="paint4_angular_26_70" cx="0" cy="0" r="1" gradientUnits="userSpaceOnUse" gradientTransform="translate(288 150.994) rotate(90) scale(7.46665)"><stop offset="0.317708" stop-color="#FF9255"></stop><stop offset="1" stop-color="#FB3311"></stop></radialGradient><radialGradient id="paint5_angular_26_70" cx="0" cy="0" r="1" gradientUnits="userSpaceOnUse" gradientTransform="translate(279.992 159.008) rotate(90) scale(7.99247)"><stop offset="0.317708" stop-color="#FF9255"></stop><stop offset="1" stop-color="#FB3311"></stop></radialGradient><radialGradient id="paint6_angular_26_70" cx="0" cy="0" r="1" gradientUnits="userSpaceOnUse" gradientTransform="translate(296.011 142.98) rotate(90) scale(7.99245 7.98905)"><stop offset="0.317708" stop-color="#FF9255"></stop><stop offset="1" stop-color="#FB3311"></stop></radialGradient><linearGradient id="paint7_linear_26_70" x1="471.5" y1="116" x2="471.5" y2="117" gradientUnits="userSpaceOnUse"><stop offset="0.463542" stop-color="#FF9255"></stop><stop offset="1" stop-color="#FB3311"></stop></linearGradient><linearGradient id="paint8_linear_26_70" x1="456.5" y1="95" x2="456.5" y2="116" gradientUnits="userSpaceOnUse"><stop offset="0.463542" stop-color="#FF9255"></stop><stop offset="1" stop-color="#FB3311"></stop></linearGradient><linearGradient id="paint9_linear_26_70" x1="471.5" y1="77" x2="471.5" y2="116" gradientUnits="userSpaceOnUse"><stop offset="0.463542" stop-color="#FF9255"></stop><stop offset="1" stop-color="#FB3311"></stop></linearGradient><linearGradient id="paint10_linear_26_70" x1="486.5" y1="86" x2="486.5" y2="116" gradientUnits="userSpaceOnUse"><stop offset="0.463542" stop-color="#FF9255"></stop><stop offset="1" stop-color="#FB3311"></stop></linearGradient><linearGradient id="paint11_linear_26_70" x1="271.25" y1="67" x2="271.25" y2="77.5" gradientUnits="userSpaceOnUse"><stop stop-color="#FF9255"></stop><stop offset="0.65625" stop-color="#FB3311"></stop></linearGradient><linearGradient id="paint12_linear_26_70" x1="272.764" y1="79.0072" x2="272.764" y2="84.466" gradientUnits="userSpaceOnUse"><stop stop-color="#FF9255"></stop><stop offset="0.65625" stop-color="#FB3311"></stop></linearGradient><linearGradient id="paint13_linear_26_70" x1="305.75" y1="67" x2="305.75" y2="77.5" gradientUnits="userSpaceOnUse"><stop stop-color="#FF9255"></stop><stop offset="0.65625" stop-color="#FB3311"></stop></linearGradient><linearGradient id="paint14_linear_26_70" x1="304.236" y1="79.0072" x2="304.236" y2="84.466" gradientUnits="userSpaceOnUse"><stop stop-color="#FF9255"></stop><stop offset="0.65625" stop-color="#FB3311"></stop></linearGradient><linearGradient id="paint15_linear_26_70" x1="288.5" y1="64" x2="288.5" y2="77.5" gradientUnits="userSpaceOnUse"><stop stop-color="#FF9255"></stop><stop offset="0.65625" stop-color="#FB3311"></stop></linearGradient><linearGradient id="paint16_linear_26_70" x1="288.5" y1="80.5056" x2="288.5" y2="91" gradientUnits="userSpaceOnUse"><stop stop-color="#FF9255"></stop><stop offset="0.65625" stop-color="#FB3311"></stop></linearGradient></defs></svg>